<svg width="156" height="66" viewBox="0 0 156 66" fill="none" xmlns="http://www.w3.org/2000/svg"><path d="M137.777 64.851h-9.149V23.387h8.91V39.49s5.731-4.172 11.671-1.98c4.013 1.48 6.13 4.738 6.554 8.94.276 2.666.202 5.35.221 8.034.036 3.425 0 6.85 0 10.348h-9.205v-.963c0-4.572.019-9.126-.018-13.698 0-.759-.074-1.555-.295-2.277-.718-2.258-2.522-3.184-5.301-2.795-1.915.26-3.369 1.962-3.388 4.128-.036 4.813-.018 9.626-.018 14.438.018.334.018.704.018 1.185zM88.473 55.374c2.43 1.184 4.805 2.35 7.29 3.554a11.465 11.465 0 0 1-3.056 3.683c-5.283 4.24-15.794 4.776-21.225-1.295-3.222-3.592-4.179-7.905-3.516-12.55.976-6.794 5.21-11.144 12.076-12.144 5.449-.796 10.401.481 13.99 5.072 2.799 3.591 3.37 7.756 2.78 12.217H77.19c-.055 1.37 1.27 3.11 2.835 3.776 2.209.963 5.725.852 8.45-2.313zm-.736-7.405c-.368-2.406-2.43-3.98-5.173-3.98-2.688-.018-5.007 1.703-5.338 3.98h10.51zM99.722 58.558c2.338-1.056 7.124-3.226 7.124-3.226s.387.412.552.653c1.363 1.98 3.222 2.887 5.615 2.61.746-.094 1.9-.645 1.97-1.518.037-.519-.368-1.37-.81-1.574-1.547-.703-3.167-1.258-4.786-1.758-1.989-.63-3.958-1.296-5.597-2.666-3.737-3.165-3.645-8.96.184-12.032 1.841-1.462 3.977-2.184 6.259-2.443 2.964-.315 5.873.018 8.579 1.425 1.785.926 3.092 2.277 3.829 4.295a2032.345 2032.345 0 0 0-6.903 3.128c-.682-1.074-1.639-1.759-2.891-1.944l-.276-.055c-.994-.13-2.08.37-2.264 1.036-.203.74.239 1.426 1.436 1.833 1.601.537 3.258.87 4.841 1.407 1.215.407 2.43.907 3.498 1.573 5.578 3.48 5.615 10.866.092 14.476-1.638 1.073-3.461 1.703-5.412 1.925-3.627.407-7.161.074-10.456-1.703-2.173-1.222-3.774-2.907-4.584-5.442z" fill="#2C2D36"/><path fill-rule="evenodd" clip-rule="evenodd" d="M23.672 36.016c0-9.19 7.885-16.402 17.04-15.584l4.724.422-.817 9.141-4.725-.422a6.468 6.468 0 0 0-7.044 6.443V39.8h7.79v9.178h-7.79V64.85h-9.178V36.016zM45.436 51.56c0-9.415 8.255-16.698 17.597-15.524l2.034.256-1.144 9.106-2.034-.256c-3.863-.485-7.275 2.526-7.275 6.418v13.291h-9.178v-13.29z" fill="#2C2D36"/><path d="M0 8.564L8.564 0l14.555 18.496-4.623 4.623L0 8.564zM2.1 32.207v-7.979l15.398 1.836v4.307L2.1 32.207z" fill="#2BC08B"/></svg>